/* XPM */
static char *_d867ac0b05a4a3f908343b87993105bd76VsdgcJr8bGPic[] = {
/* columns rows colors chars-per-pixel */
"32 32 58 1 ",
"  c #02110D",
". c #03120E",
"X c #041410",
"o c #041612",
"O c #041712",
"+ c #051712",
"@ c #061814",
"# c #061914",
"$ c #1F3A33",
"% c #203D36",
"& c #223F38",
"* c #24433B",
"= c #224548",
"- c #264B4C",
"; c #2F584E",
": c #2F5754",
"> c #335C52",
", c #325C57",
"< c #356257",
"1 c #36615B",
"2 c #356458",
"3 c #35645B",
"4 c #38675B",
"5 c #3A675F",
"6 c #3A6B5F",
"7 c #3D6B62",
"8 c #3B6C60",
"9 c #427367",
"0 c #487B6D",
"q c #508775",
"w c #AAA46E",
"e c #ACA770",
"r c #ADA871",
"t c #ADA971",
"y c #AEAA73",
"u c #B0AA75",
"i c #B1AE76",
"p c #B3AE78",
"a c #B5AF79",
"s c #B7B27A",
"d c #B8B47C",
"f c #B9B77D",
"g c #99C693",
"h c #BFC187",
"j c #C0C287",
"k c #C6C28D",
"l c #DCD9A5",
"z c #DFDDA7",
"x c #E0DFA8",
"c c #E2E0AC",
"v c #E3E1AD",
"b c #E5E4AF",
"n c #E5E4B1",
"m c #E9E6B1",
"M c #EBECB4",
"N c #EBEDB4",
"B c #F3F8BE",
"V c #F9F9C5",
/* pixels */
"00000099900000000000000000009995",
"0999999999999999999999999999787,",
"09ggg====3ggfu:==:ufgg21---ggg8,",
"09gg=-::::32Vfu::ufV32:,:-==gg7,",
"09g=-:ttt9992VffffV3999iii:-=g7,",
"99=--tpppptq9<VVVV39qjjjhyi:-=7,",
"99=-wppNNccpq9,1339qjnnbxjui,-7,",
"99=-wpNVVVVcaq9999qjnVVVVxhy:=77",
"09=-ppxV******%%********Mnhp:-8,",
"09=-ppcN*%$%%%%%$$$$$$*;Mxhf:-7,",
"09=-tpcN*$  ..+       >;mmfa:-7,",
"09-gtscN%$  ..        <;mmfdg:71",
"00ggiilN%% .++######++1;mxfagg7,",
"00ggiilV%%  ++######++1;mxkagg77",
"09,gtinV&%  @@++OO##@+6:mxkfg:,,",
"99=,tinV*%  @@++  oo@+4:mxkf:=,7",
"99=,welV&$....OO##....2;nzfs:=,1",
"09,gwelN*$..O# OO..#OO6;blfsg:71",
"00ggtaxN$$..##OO.Oo.OO,;Bnjsgg71",
"00ggeazn&&. ##O#++.+O#2;Bnjsgg71",
"09,gepMn&&  #####+.#OO7;Vnfyg211",
"09=,epMn*$  ####@####.6;Bnjt1:11",
"09=:ppxV**2666221166666;Bchf1:6,",
"09=:isbV*;;;;;::;;;;;;;;Bchd1,71",
"09=:wazVVVVMhq99999hxVMNNchf2:8,",
"09=:wdhnxnnhq9313339hcxncjhf2:81",
"09=::ddhhhdq91VVVV:31hhjhff3::8,",
"99g=::dddqq91VffffV:331fff3::g7,",
"91gg=:::99,1Vfy99yfV::8,8,::gg7,",
"97ggg==:::ggdy9::9pfgg:::::ggg77",
"9777778777777787,7887777717777,,",
"7,11,,,,1111,,,7,7,,11111,1,,1,7"
};
