/* XPM */
static char *_ba73f05345545e1985ee00e78909081rQdqG3px29gdxgNp[] = {
/* columns rows colors chars-per-pixel */
"32 32 92 1 ",
"  c #00AC9F",
". c #00ADA0",
"X c #00B2A6",
"o c #01B5AA",
"O c #00B8AD",
"+ c #01BDB3",
"@ c #00C1B7",
"# c #01C5BB",
"$ c #0FC6BD",
"% c #0AC8BF",
"& c #13C0B7",
"* c #22C6BD",
"= c #33C6BD",
"- c #39C7BE",
"; c #3DC8BF",
": c #04C9C1",
"> c #0BCAC2",
", c #13CCC4",
"< c #1BCEC6",
"1 c #1FCFC8",
"2 c #24CBC3",
"3 c #28CCC4",
"4 c #33CEC6",
"5 c #37CFC9",
"6 c #25D1C9",
"7 c #2BD2CB",
"8 c #32D3CC",
"9 c #3DD2CB",
"0 c #42CAC2",
"q c #42D3CD",
"w c #49D5CE",
"e c #43D7D0",
"r c #4AD7D0",
"t c #47D8D1",
"y c #4CD8D2",
"u c #53DAD4",
"i c #5CDCD7",
"p c #5FDCD8",
"a c #65DED9",
"s c #69DFDA",
"d c #6DE0DB",
"f c #74E1DD",
"g c #7BE3DE",
"h c #7EE4E0",
"j c #7FE4E0",
"k c #80E3DF",
"l c #81E3DF",
"z c #80E4DF",
"x c #81E3E0",
"c c #80E4E0",
"v c #83E5E1",
"b c #85E4E1",
"n c #84E5E1",
"m c #86E4E0",
"M c #87E6E2",
"N c #88E5E1",
"B c #89E5E2",
"V c #89E6E2",
"C c #8AE7E3",
"Z c #8BE7E3",
"A c #8DE6E2",
"S c #8DE7E3",
"D c #8FE7E4",
"F c #8EE8E4",
"G c #90E7E3",
"H c #91E7E4",
"J c #92E8E4",
"K c #92E9E5",
"L c #95E8E4",
"P c #95E8E5",
"I c #95E9E5",
"U c #98E9E5",
"Y c #9AE9E5",
"T c #98E9E6",
"R c #98EAE6",
"E c #9BEAE7",
"W c #9CEBE7",
"Q c #9FEAE7",
"! c #9EEBE8",
"~ c #9FEBE8",
"^ c #A1EBE7",
"/ c #A1EBE8",
"( c #A2EBE8",
") c #A3EBE8",
"_ c #A5ECE9",
"` c #A6ECE9",
"' c #A7ECE9",
"] c #A8EDEA",
"[ c #AAEDEA",
"{ c #ACEDEA",
"} c #ACEEEB",
"| c #AEEEEB",
/* pixels */
"........  o++@@++++++###:>,116$+",
"o=====-;000qqqqq9999qqqeeettqt8+",
"+5dddffzlVVzzznzlgzllnnlgggffs5+",
"+9gjgcnVSSSVVVVVlVllVVVVvgfssa3+",
"@wSFSVFFJDSSDJSSlGVlSlVnlgfsss4+",
"#tJJJJFFGSJJIIIJGGVVSSVnllgffs8+",
"#tJJJGSSSGGLRWIIGGSllnlzjggggg9+",
"#rJFFJJSSGRRRRILLGGSllllgggfgg9+",
"@rIJSSSVnSIILGGGLGSAVllggggfff9+",
"#yRJSzgfglVSVSSSSAASVVlgvgggfg9@",
"#wRIVgsssglnlSVlVVBVVmmVVmvggh9@",
"#yIJVgfffgggllVVVVSvVVAlVmvggj9#",
"#wGSVlggggfggnlllVVmjkBBnVcjff9+",
"#wGSVlngfddfgggggglggvkBmVvhff8@",
"#wIGSnlgfdsdsddfdsfffjgjmvjjds4+",
"#rRIGVgzfdaaaaaasaasssafghddpu3+",
"+yYWUVmSCjsaaaaasaaassssfssare3+",
"#rYWESvGESjsssffffsfsfffffsauu3O",
"#yY/~VmSRHMcbMmvVmmSmnVmvVlgfs5+",
":yW//UVSI~EHRPYRUYRR~E~~^WUSSjq+",
"#y/]]^^^~~/R////^^//~^/))^WICh9+",
":y)}]{]`)`/`][)]/^/^WW~/WRGlfa4O",
"#u]}{{{{]]]`][[]//~W^WWYGnfsiy*X",
":u}}]{{]{]{]][)///WW^YGmfaue87+X",
"#u]]))})[]}}[[))~EIIJVjfu971,>@X",
":u})////)[[}][/~ERJCcvsu96,>::+X",
"#u)/~R//)[[[])/~JJnjfau971>>::+X",
"#u/EIHIE///////YJCjjae9761,>>>+X",
"#yEESSCSUEPUIIHSMjjdu976<,,%>$O.",
"+rRSCvvmnCSCCMnvjjhay81,>#$##%O ",
"@rrrqeqqeqqeeqq999976<>%##@@@@+X",
"@@@@+@@+@++#:+@@##::######@@++O+"
};
