/* XPM */
static char *_2a79da3302040ddecb5327e08bf422evzHt7hbTZtjcGFmW[] = {
/* columns rows colors chars-per-pixel */
"32 32 140 2 ",
"   c None",
".  c #0E0A0A",
"X  c #140E0E",
"o  c #1C160F",
"O  c #171011",
"+  c #1C1414",
"@  c #201615",
"#  c #251A15",
"$  c #2A1D16",
"%  c #241A1A",
"&  c #2A1E1D",
"*  c #321F1F",
"=  c #1B230A",
"-  c #27320F",
";  c #2E2119",
":  c #32231A",
">  c #35291D",
",  c #3B2A1F",
"<  c #253011",
"1  c #2F3D12",
"2  c #3B341E",
"3  c #3B3E1D",
"4  c #2D2422",
"5  c #332423",
"6  c #3C2727",
"7  c #372C25",
"8  c #3D2C21",
"9  c #3C2A2A",
"0  c #400909",
"q  c #560707",
"w  c #411715",
"e  c #5C1515",
"r  c #6F1513",
"t  c #412E22",
"y  c #412D2D",
"u  c #4E2C22",
"i  c #463324",
"p  c #4A3426",
"a  c #4D3728",
"s  c #4E392A",
"d  c #533B2B",
"f  c #593F2E",
"g  c #4E3C32",
"h  c #3C4E17",
"j  c #39491B",
"k  c #3D441E",
"l  c #3F571F",
"z  c #445F1C",
"x  c #424021",
"c  c #5B402F",
"v  c #445821",
"b  c #465322",
"n  c #5D4230",
"m  c #5B4836",
"M  c #554438",
"N  c #634633",
"B  c #654934",
"V  c #6A4B36",
"C  c #6F4E39",
"Z  c #724F3A",
"A  c #63513D",
"S  c #75533C",
"D  c #7A553E",
"F  c #7D583F",
"G  c #486B20",
"H  c #577422",
"J  c #527F26",
"K  c #5D7D25",
"L  c #616730",
"P  c #564A42",
"I  c #665843",
"U  c #66574C",
"Y  c #7D5B42",
"T  c #596143",
"R  c #736843",
"E  c #706656",
"W  c #805A41",
"Q  c #806247",
"!  c #84664A",
"~  c #8A694B",
"^  c #956146",
"/  c #806D52",
"(  c #987453",
")  c #9E7957",
"_  c #967455",
"`  c #548327",
"'  c #5B8227",
"]  c #588529",
"[  c #5E922C",
"{  c #618126",
"}  c #658D2A",
"|  c #64932D",
" . c #679C30",
".. c #76AA33",
"X. c #7EAF34",
"o. c #798471",
"O. c #85AD32",
"+. c #94C73A",
"@. c #A0845F",
"#. c #AE855F",
"$. c #AD885B",
"%. c #918360",
"&. c #978776",
"*. c #968D7B",
"=. c #988F7F",
"-. c #AD8560",
";. c #B78C64",
":. c #BC9168",
">. c #BD9163",
",. c #AD9770",
"<. c #B59B77",
"1. c #B19E7A",
"2. c #BCA67A",
"3. c #D0885B",
"4. c #CB9266",
"5. c #C2946A",
"6. c #C7986D",
"7. c #C8996E",
"8. c #CC9E73",
"9. c #C1A579",
"0. c #D4A375",
"q. c #E0AA79",
"w. c #9C9A98",
"e. c #989794",
"r. c #A99E8A",
"t. c #B4A588",
"y. c #A5A6A7",
"u. c #AAABAC",
"i. c #C7B48E",
"p. c #DCBA87",
"a. c #D4B688",
"s. c #DBB897",
"d. c #F2BA85",
"f. c #F8BE89",
"g. c #F3C68F",
"h. c #E9CE98",
"j. c #F5C992",
"k. c #F2D69D",
"l. c #C3C9CA",
"z. c #C7D6E1",
/* pixels */
"                                                                ",
"                                                                ",
"                                                                ",
"                                                                ",
"                                      t f N V n a               ",
"                                  8 B F W W W W W d < G ' H -   ",
"                                a D W W W W W W B k ] ..K h =   ",
"                              d Y W W W W W W D b `  ...+.O.1   ",
"                            p F W W W W W W Y Z v [ | | } X.{   ",
"                          > Z W W W W W Y Y S N 2 3 x 2 o z K   ",
"                        $ d V W W Y D C B n d s p a d i     =   ",
"                        p c c B B N f a d N Y _ #.:.6.)         ",
"                      # d c f f f a a ~ ;.! Q 6.d.f.0.s         ",
"        @             # d f c f p j R s._ % + ; Y #.A +         ",
"        t , $           , d d > l J %.l.P % @ . + % O +         ",
"        ; d d $         X $ : ~ #.L o.z.U @ @ O + 4 4 7 #       ",
"      $ X % 8       X @ $ o 8 5.3.5.T &.8.A 4 4 I 2.@.2.m : ;   ",
"  : d V $ O .       % % & # * ^ 4.0.0.5.j.1.e.w.t.a.p.h.m ; o   ",
": N D N # X O   X O % % y 6 r r u c 6.d.g.r.u.y.e.a.k.,.>       ",
"    & @ & + O O X X % @ y y 9 6 5 5 8 Y :.<.*.=.E E ! S V a     ",
"      + & & @ + @ % % @ 6 y y y 4 * 9 9 9 g M g a C Y D V i     ",
"        O % & % % O + + & y 5 &   0 e * 5 6 9 5 t f c   , :     ",
"            X           O           q                           ",
"                                                                ",
"                                                                ",
"                                                                ",
"                                                                ",
"                                                                ",
"                                                                ",
"                                                                ",
"                                                                ",
"                                                                "
};
