/* XPM */
static char *_4fcd1fa412448a0bc626d452f4e6caajGrUIo9byxi3jFc8[] = {
/* columns rows colors chars-per-pixel */
"32 32 182 2 ",
"   c None",
".  c #1B1507",
"X  c #161106",
"o  c #261D09",
"O  c #2A1F09",
"+  c #2B210B",
"@  c #3C2D0D",
"#  c #33270D",
"$  c #292514",
"%  c #372F10",
"&  c #3E3C2D",
"*  c #41300E",
"=  c #4D390F",
"-  c #4E3A11",
";  c #493B1A",
":  c #523D10",
">  c #564012",
",  c #5D4513",
"<  c #554A1A",
"1  c #634A15",
"2  c #6D5319",
"3  c #775917",
"4  c #7C5C1A",
"5  c #73581A",
"6  c #7E611E",
"7  c #444028",
"8  c #474225",
"9  c #454333",
"0  c #59553E",
"q  c #565438",
"w  c #665624",
"e  c #695526",
"r  c #7F6420",
"t  c #716B31",
"y  c #5D5C45",
"u  c #555445",
"i  c #615E4C",
"p  c #777341",
"a  c #6B6858",
"s  c #805F19",
"d  c #83621B",
"f  c #936D1E",
"g  c #97701E",
"h  c #99721E",
"j  c #8A6820",
"k  c #866D2F",
"l  c #936F21",
"z  c #9C7622",
"x  c #9E7A25",
"c  c #947023",
"v  c #987A34",
"b  c #A57B23",
"n  c #A87F24",
"m  c #A78027",
"M  c #A9832A",
"N  c #A98126",
"B  c #B48726",
"V  c #B2872A",
"C  c #B58B2B",
"Z  c #BA8D2A",
"A  c #B88B27",
"S  c #B6912F",
"D  c #BE912B",
"F  c #A38234",
"G  c #B48D30",
"H  c #B08D3C",
"J  c #BD9436",
"K  c #BE963A",
"L  c #BF993D",
"P  c #B7923B",
"I  c #C2942C",
"U  c #CA9A2E",
"Y  c #C19631",
"T  c #C69A33",
"R  c #CD9E31",
"E  c #CB9F3A",
"W  c #C69B39",
"Q  c #CFA235",
"!  c #CEA23B",
"~  c #C5A339",
"^  c #D4A434",
"/  c #DAA837",
"(  c #D2A63C",
")  c #D5A93E",
"_  c #DCAC39",
"`  c #DEB23C",
"'  c #D5B03F",
"]  c #E4B23B",
"[  c #E9B63E",
"{  c #EAB93D",
"}  c #A09740",
"|  c #BE9B47",
" . c #AFA94C",
".. c #B3B07A",
"X. c #C7A147",
"o. c #CEA647",
"O. c #CBA64A",
"+. c #CEA94C",
"@. c #D5AC4A",
"#. c #D8AE49",
"$. c #D5AD44",
"%. c #DAB242",
"&. c #DEBB45",
"*. c #DDB848",
"=. c #D7B658",
"-. c #E3B544",
";. c #ECB740",
":. c #EDBB42",
">. c #E2BA47",
",. c #F1BD42",
"<. c #DAD35A",
"1. c #EFC645",
"2. c #EFC14B",
"3. c #EECA4D",
"4. c #F3C345",
"5. c #FAC447",
"6. c #F3C947",
"7. c #F3C54A",
"8. c #FBC649",
"9. c #F5CA4C",
"0. c #FDCC4C",
"q. c #FED14E",
"w. c #E8CB57",
"e. c #F9C751",
"r. c #F3CC53",
"t. c #FACB51",
"y. c #F9C858",
"u. c #F3D354",
"i. c #FED451",
"p. c #FFDA55",
"a. c #FBD45A",
"s. c #F6DB5C",
"d. c #FCDD5A",
"f. c #F4E35B",
"g. c #FDE25C",
"h. c #FDE85C",
"j. c #CCC962",
"k. c #CECA75",
"l. c #F8CD69",
"z. c #FCD964",
"x. c #FAD66C",
"c. c #FEDC73",
"v. c #F9DC78",
"b. c #FDE363",
"n. c #FFEC62",
"m. c #FFEE6B",
"M. c #FFE46C",
"N. c #FFF466",
"B. c #FFF269",
"V. c #E7E47E",
"C. c #FEE474",
"Z. c #FFEC74",
"A. c #FEED78",
"S. c #FFF576",
"D. c #FFF877",
"F. c #FFF778",
"G. c #FFF979",
"H. c #9D9A85",
"J. c #ABAA96",
"K. c #C0BFAC",
"L. c #F9DC87",
"P. c #FEF986",
"I. c #FEF989",
"U. c #FBEC9C",
"Y. c #FEF591",
"T. c #FFFA94",
"R. c #FEF29B",
"E. c #F2F194",
"W. c #C9C7AD",
"Q. c #D5D2A4",
"!. c #D0CEB8",
"~. c #DFDDBA",
"^. c #FCEBA6",
"/. c #FDF9A3",
"(. c #FFFDAC",
"). c #F7F3A7",
"_. c #E5E4BC",
"`. c #FFFFB3",
"'. c #FFFBBB",
"]. c #F8F4B6",
"[. c #FFFFC7",
"{. c #F5F5D3",
/* pixels */
"                        $ 9 u y y q 7 $                         ",
"                    i H.K.{.].).).E.V.j.} w +                   ",
"                a K.{.'.Y.Z.b.f.s.b.n.B.N.f.~ 5                 ",
"            & J.{.(.m.r.%.o.O.O.O.+.@.*.9.g.h.6.m @             ",
"          0 !.[.A.&.M F | X.o.$.#.#.@.O.P S >.p.q.I -           ",
"        0 ~.`.s.S 4 j K >.7.t.a.a.i.q.3.$.M l T u.q.U -         ",
"      7 Q.(.u.x 4 V -.a.p.p.p.p.p.p.p.p.p.0.$.b A 9.6.Z @       ",
"      ..(.s.x 6 W r.p.p.d.p.p.p.p.p.p.p.p.p.i.2.C D q.:.g .     ",
"    p /.m.V 4 E 0.p.p.i.i.i.t.i.i.0.i.i.i.i.i.i.6.Z Q q.^ ,     ",
"  # k.P.%.4 J r.a.q.4.,.:.:.,.{ ,.[ ,.:.,.7.0.i.q.2.Z :.4.b o   ",
"  t P.b.z z 2.p.i.:.Z J K W K K W K L L K ^ i.p.i.q./ R q.R >   ",
"   .G.&.4 ( a.p.i.[ l H O.O.O.o.O.O.O.X.L %.N.p.p.q.7.U 4.{ d   ",
"% <.B.S c 7.p.p.i.[ h E 0.9.9.9.7.7.7.7.:.1.N.p.i.i.0./ ] 9.b O ",
"< f.f.z G a.p.p.i.[ c ) p.p.p.p.a.p.a.i.8.6.N.p.i.q.0.[ ` 9.Z @ ",
"e h.u.f ! p.p.p.i.[ h ( a.q.p.p.p.q.q.i.8.6.N.p.p.q.q.4.] q.I : ",
"d h.3.g %.p.p.i.q.[ g ( p.p.p.i.i.p.i.i.8.6.n.p.i.q.q.5.{ q.U > ",
"6 p.3.l -.p.p.p.q.[ g ( i.p.p.i.i.p.q.q.5.1.N.p.i.i.0.0.4.i.U > ",
"5 q.9.z %.p.p.i.q.[ g ! i.i.q.i.i.q.i.q.5.4.h.p.i.0.0.8.6.q.I = ",
"> { i.N ) i.i.i.0.[ g ( i.i.i.i.i.q.q.q.5.4.h.p.i.0.0.0.u.q.B @ ",
"% ^ i.Y Y i.i.i.0.[ f ( q.q.q.q.0.q.0.0.4.1.n.p.q.0.8.i.g.7.h + ",
". N q.` V 0.i.i.q.[ z =.c.c.c.c.c.c.c.c.x.r.n.i.0.0.0.b.b._ 4 X ",
"  2 { 9.C _ i.i.q.8.w./.`.`.'.`.`.(.(.(.`./.B.i.0.8.a.B.p.D :   ",
"  @ D q.' I 0.i.i.p.m.F.D.G.G.G.D.D.D.D.S.S.g.q.0.0.A.Z.;.f +   ",
"    3 ] 0.R ^ 0.i.i.p.a.p.p.g.p.g.p.p.p.p.q.q.0.8.v.P.a.Z ,     ",
"    + n ,.6.U ] 0.q.q.i.q.i.i.i.q.i.i.0.0.0.0.8.v.T.M./ 6 o     ",
"      - Z 5.4.^ ] 8.0.0.0.q.0.0.0.0.0.0.0.5.e.L./.A.[ g @       ",
"        , I 4.9.` ] 5.8.0.0.8.0.0.0.8.5.8.l.U./.C.;.z -         ",
"          , B { 0.6.1.a.z.a.t.e.8.y.l.L.^.(.Y.z./ l =           ",
"            = h ^ 4.i.n.G.I.Y.R.^.].'.'.R.c.:.D d *             ",
"              + 2 b R [ 9.a.b.C.Z.C.z.e.] D f , +               ",
"                  @ 1 l V T ^ / ^ E D M j , #                   ",
"                      $ ; e k v v k e ; +                       "
};
